<svg xmlns="http://www.w3.org/2000/svg" xmlns:xlink="http://www.w3.org/1999/xlink" width="36.007" height="36.008" viewBox="0 0 36.007 36.008">
  <defs>
    <linearGradient id="linear-gradient" x1="0.5" x2="0.5" y2="1" gradientUnits="objectBoundingBox">
      <stop offset="0" stop-color="#fea64c"/>
      <stop offset="0.874" stop-color="#fe328e"/>
      <stop offset="1" stop-color="#fe2099"/>
      <stop offset="1" stop-color="#fe1e9a"/>
    </linearGradient>
  </defs>
  <path id="plus" d="M38.13,15.9a.837.837,0,0,0-.829-.832H25.181V2.957a.836.836,0,0,0-.832-.832l-8.444,0a.833.833,0,0,0-.829.829V15.073H2.957a.838.838,0,0,0-.832.832v8.441a.836.836,0,0,0,.832.832H15.075V37.3a.84.84,0,0,0,.829.832l8.444-.005a.839.839,0,0,0,.832-.832V25.178H37.3a.836.836,0,0,0,.832-.832Z" transform="translate(-2.125 -2.125)" fill="url(#linear-gradient)"/>
</svg>
