<svg xmlns="http://www.w3.org/2000/svg" xmlns:xlink="http://www.w3.org/1999/xlink" width="19.664" height="28.402" viewBox="0 0 19.664 28.402">
  <defs>
    <linearGradient id="linear-gradient" x1="0.5" x2="0.5" y2="1" gradientUnits="objectBoundingBox">
      <stop offset="0" stop-color="#fea64c"/>
      <stop offset="1" stop-color="#fe1e9a"/>
    </linearGradient>
  </defs>
  <path id="Path_18" data-name="Path 18" d="M24.543,31.4H9.12a1.093,1.093,0,0,1-1.091-1.039L7,9.608A1.092,1.092,0,0,1,8.092,8.462H25.571a1.092,1.092,0,0,1,1.091,1.147L25.634,30.365A1.093,1.093,0,0,1,24.543,31.4ZM10.16,29.218H23.5l.92-18.571H9.241ZM25.571,7.37H8.092a1.092,1.092,0,1,1,0-2.185H25.571a1.092,1.092,0,1,1,0,2.185Zm-6.554,0h-4.37a1.093,1.093,0,0,1-1.092-1.092V4.092A1.093,1.093,0,0,1,14.647,3h4.37a1.093,1.093,0,0,1,1.092,1.092V6.277A1.093,1.093,0,0,1,19.016,7.37ZM15.739,5.185h0ZM12.462,27.033A1.093,1.093,0,0,1,11.37,25.94V13.924a1.092,1.092,0,0,1,2.185,0V25.94A1.093,1.093,0,0,1,12.462,27.033Zm4.37,0a1.093,1.093,0,0,1-1.092-1.092V13.924a1.092,1.092,0,1,1,2.185,0V25.94A1.093,1.093,0,0,1,16.832,27.033Zm4.37,0a1.093,1.093,0,0,1-1.092-1.092V13.924a1.092,1.092,0,1,1,2.185,0V25.94A1.093,1.093,0,0,1,21.2,27.033Z" transform="translate(-7 -3)" fill="url(#linear-gradient)"/>
</svg>
