<svg height='300px' width='300px'  fill="#000000" xmlns="http://www.w3.org/2000/svg" xmlns:xlink="http://www.w3.org/1999/xlink" version="1.1" x="0px" y="0px" viewBox="0 0 33 33" enable-background="new 0 0 33 33" xml:space="preserve"><path d="M30.873,13.127c0-0.363-0.301-0.664-0.662-0.664h-9.677V2.789c0-0.367-0.303-0.664-0.664-0.664l-6.742,0.002  c-0.361,0-0.662,0.297-0.662,0.662v9.674H2.789c-0.363,0-0.664,0.301-0.664,0.664v6.74c0,0.367,0.303,0.664,0.664,0.664h9.676v9.68  c0,0.359,0.301,0.664,0.662,0.664l6.742-0.004c0.361,0,0.664-0.301,0.664-0.664v-9.676h9.677c0.361,0,0.664-0.297,0.664-0.664  L30.873,13.127z"></path></svg>