<svg height='300px' width='300px'  fill="#000000" xmlns="http://www.w3.org/2000/svg" xmlns:xlink="http://www.w3.org/1999/xlink" version="1.1" x="0px" y="0px" viewBox="0 0 32 32" enable-background="new 0 0 32 32" xml:space="preserve"><g><path d="M23.059,29H8.941c-0.533,0-0.972-0.418-0.999-0.951l-0.941-19C6.988,8.776,7.087,8.509,7.275,8.311   C7.464,8.112,7.726,8,8,8h16c0.274,0,0.536,0.112,0.725,0.311c0.188,0.198,0.288,0.465,0.274,0.739l-0.941,19   C24.031,28.582,23.592,29,23.059,29z M9.893,27h12.214l0.842-17H9.051L9.893,27z M24,7H8C7.448,7,7,6.552,7,6s0.448-1,1-1h16   c0.552,0,1,0.448,1,1S24.552,7,24,7z M18,7h-4c-0.552,0-1-0.448-1-1V4c0-0.552,0.448-1,1-1h4c0.552,0,1,0.448,1,1v2   C19,6.552,18.552,7,18,7z M15,5h2H15z M12,25c-0.552,0-1-0.448-1-1V13c0-0.552,0.448-1,1-1s1,0.448,1,1v11   C13,24.552,12.552,25,12,25z M16,25c-0.552,0-1-0.448-1-1V13c0-0.552,0.448-1,1-1s1,0.448,1,1v11C17,24.552,16.552,25,16,25z    M20,25c-0.552,0-1-0.448-1-1V13c0-0.552,0.448-1,1-1s1,0.448,1,1v11C21,24.552,20.552,25,20,25z"></path></g></svg>