<svg xmlns="http://www.w3.org/2000/svg" xmlns:xlink="http://www.w3.org/1999/xlink" width="23.783" height="21.992" viewBox="0 0 23.783 21.992">
  <defs>
    <linearGradient id="linear-gradient" x1="0.5" x2="0.5" y2="1" gradientUnits="objectBoundingBox">
      <stop offset="0" stop-color="#fea64c"/>
      <stop offset="1" stop-color="#fe1e9a"/>
    </linearGradient>
  </defs>
  <g id="Group_79" data-name="Group 79" transform="translate(-172.47 -581.658)">
    <path id="Path_19" data-name="Path 19" d="M34.017,11.536H12.841a1.3,1.3,0,0,0-1.3,1.3v3.339a1.3,1.3,0,0,0,1.3,1.3H34.017a1.3,1.3,0,0,0,1.3-1.3V12.839A1.3,1.3,0,0,0,34.017,11.536ZM14.987,16.13a1.621,1.621,0,1,1,1.621-1.621A1.621,1.621,0,0,1,14.987,16.13Zm17.361-.63H19.254a.991.991,0,0,1,0-1.982H32.348a.991.991,0,1,1,0,1.982Z" transform="translate(160.932 570.122)" fill="url(#linear-gradient)"/>
    <path id="Path_20" data-name="Path 20" d="M34.017,104.96H12.841a1.3,1.3,0,0,0-1.3,1.3V109.6a1.3,1.3,0,0,0,1.3,1.3H34.017a1.3,1.3,0,0,0,1.3-1.3v-3.339A1.3,1.3,0,0,0,34.017,104.96Zm-19.031,4.594a1.621,1.621,0,1,1,1.621-1.621A1.621,1.621,0,0,1,14.987,109.554Zm17.361-.63H19.254a.991.991,0,0,1,0-1.982H32.348a.991.991,0,1,1,0,1.982Z" transform="translate(160.932 484.721)" fill="url(#linear-gradient)"/>
    <path id="Path_21" data-name="Path 21" d="M34.017,198.384H12.841a1.3,1.3,0,0,0-1.3,1.3v3.339a1.3,1.3,0,0,0,1.3,1.3H34.017a1.3,1.3,0,0,0,1.3-1.3v-3.339A1.3,1.3,0,0,0,34.017,198.384Zm-19.031,4.594a1.621,1.621,0,1,1,1.621-1.621A1.621,1.621,0,0,1,14.987,202.978Zm17.361-.63H19.254a.991.991,0,0,1,0-1.982H32.348a.991.991,0,1,1,0,1.982Z" transform="translate(160.932 399.321)" fill="url(#linear-gradient)"/>
  </g>
</svg>
