<svg height='300px' width='300px'  fill="#000000" xmlns:dc="http://purl.org/dc/elements/1.1/" xmlns:cc="http://creativecommons.org/ns#" xmlns:rdf="http://www.w3.org/1999/02/22-rdf-syntax-ns#" xmlns:svg="http://www.w3.org/2000/svg" xmlns="http://www.w3.org/2000/svg" xmlns:sodipodi="http://sodipodi.sourceforge.net/DTD/sodipodi-0.dtd" xmlns:inkscape="http://www.inkscape.org/namespaces/inkscape" viewBox="0 0 26.458333 26.458334" version="1.1" x="0px" y="0px"><g transform="translate(0,-270.54165)"><path style="" d="m 0.00211884,295.67697 v -1.3208 l 0.08573,1.3e-4 c 0.419585,5e-4 0.96325796,0.16893 1.34302496,0.41606 0.417787,0.27187 0.764241,0.66817 0.968475,1.10783 0.144485,0.31104 0.243905,0.73102 0.244271,1.03188 l 1.01e-4,0.0857 h -1.3208 -1.32079996 v -1.3208 z m 10.58498416,1.19062 c 0.0047,-0.0716 0.01665,-0.18599 0.02647,-0.25421 0.151348,-1.05215 0.941077,-1.92377 1.97484,-2.17962 1.306506,-0.32336 2.636943,0.37522 3.117326,1.63682 0.08574,0.22517 0.147137,0.5209 0.165475,0.79701 l 0.0086,0.13018 h -2.650689 -2.65069 z m 13.227619,0.0445 c 3.94e-4,-0.32022 0.107003,-0.75005 0.266968,-1.07633 0.351382,-0.71672 1.017947,-1.24402 1.790328,-1.41628 0.150435,-0.0335 0.384373,-0.0633 0.497992,-0.0633 h 0.08621 v 1.3208 1.3208 h -1.3208 -1.3208 l 1.27e-4,-0.0857 z M 6.4346688,294.34842 c -0.163717,-0.01 -0.374589,-0.0337 -0.508,-0.0575 -1.364641,-0.24373 -2.499408,-1.17299 -3.005091,-2.46087 -0.457029,-1.16396 -0.333894,-2.48848 0.329812,-3.54768 0.560267,-0.89412 1.456735,-1.53099 2.488123,-1.76763 0.302175,-0.0693 0.478278,-0.0876 0.853906,-0.0887 0.379802,-10e-4 0.502633,0.009 0.8001,0.0689 1.342687,0.26818 2.4566537,1.21494 2.9370902,2.49625 0.268475,0.71601 0.323408,1.52424 0.15423,2.26921 -0.34961,1.53949 -1.5981902,2.74143 -3.1421202,3.02474 -0.251268,0.0461 -0.687492,0.0765 -0.90805,0.0633 z m 13.1451052,-0.005 c -1.405738,-0.10204 -2.637405,-0.91423 -3.267766,-2.15485 -0.209917,-0.41315 -0.326146,-0.77741 -0.398309,-1.24831 -0.02373,-0.15482 -0.02838,-0.23977 -0.02923,-0.5334 -0.0011,-0.3798 0.0095,-0.50263 0.0689,-0.8001 0.322861,-1.61649 1.616116,-2.86754 3.241532,-3.13575 1.36589,-0.22538 2.753701,0.27826 3.653905,1.326 0.943621,1.09828 1.215681,2.61765 0.711396,3.97295 -0.260527,0.70019 -0.729894,1.32935 -1.329214,1.78175 -0.556359,0.41997 -1.235772,0.69279 -1.922383,0.77194 -0.211094,0.0243 -0.542246,0.0333 -0.728832,0.0198 z M 0.00211884,283.77076 v -2.65034 l 0.130175,0.009 c 0.67716596,0.045 1.25389696,0.29814 1.71602296,0.75328 0.412587,0.40636 0.665422,0.89154 0.765855,1.46966 0.03109,0.17895 0.03111,0.659 3.8e-5,0.8382 -0.08257,0.47625 -0.287036,0.92408 -0.579848,1.27 -0.491893,0.58111 -1.132558,0.90189 -1.90207396,0.95235 l -0.130169,0.009 z m 12.99627316,2.63533 c -0.92318,-0.0896 -1.711014,-0.62362 -2.127913,-1.4424 -0.127855,-0.25111 -0.215335,-0.52693 -0.259416,-0.81793 -0.02989,-0.19735 -0.02989,-0.55195 0,-0.7493 0.177067,-1.16892 1.073112,-2.06706 2.237105,-2.24235 0.200988,-0.0303 0.566423,-0.0305 0.762,-3.7e-4 1.166044,0.1793 2.057011,1.07021 2.236498,2.23637 0.02921,0.18978 0.02921,0.57222 0,0.762 -0.163463,1.06205 -0.926835,1.91211 -1.956402,2.17856 -0.26972,0.0698 -0.633117,0.10053 -0.891872,0.0754 z m 13.280026,0.004 c -0.113614,-0.007 -0.327393,-0.0413 -0.46355,-0.0752 -0.633331,-0.15731 -1.19389,-0.55324 -1.561303,-1.10278 -0.584908,-0.87484 -0.585066,-2.04735 -3.93e-4,-2.92183 0.45406,-0.67914 1.172755,-1.1039 1.987146,-1.17446 0.08033,-0.007 0.161766,-0.0127 0.180975,-0.0128 l 0.03493,-1.1e-4 v 2.64795 2.64795 l -0.05398,-0.002 c -0.02969,-10e-4 -0.08541,-0.004 -0.123825,-0.006 z M 6.2505188,281.10926 c -1.595454,-0.15823 -2.93069,-1.23262 -3.415133,-2.74795 -0.125587,-0.39284 -0.181334,-0.75859 -0.182045,-1.19437 -5.18e-4,-0.31714 0.01782,-0.51517 0.0734,-0.79266 0.197169,-0.98444 0.772918,-1.87047 1.593521,-2.45229 1.125886,-0.79827 2.586076,-0.95366 3.860661,-0.41085 0.838825,0.35723 1.5484767,1.02206 1.9644362,1.84036 0.313363,0.61646 0.451533,1.22939 0.432148,1.91704 -0.0168,0.59602 -0.143378,1.11012 -0.403367,1.6383 -0.5875572,1.19366 -1.7058332,1.9972 -3.0409672,2.18508 -0.168686,0.0237 -0.71077,0.0344 -0.88265,0.0173 z m 13.2301532,-4.2e-4 c -0.742593,-0.0716 -1.427484,-0.33642 -2.02032,-0.7812 -0.767093,-0.57552 -1.301705,-1.41426 -1.499965,-2.35327 -0.09739,-0.46125 -0.108899,-0.9894 -0.03187,-1.46225 0.237321,-1.45689 1.285906,-2.67472 2.695316,-3.13035 1.170938,-0.37854 2.463243,-0.18773 3.476288,0.51329 0.841017,0.58198 1.428567,1.47496 1.631239,2.47922 0.101548,0.50319 0.101064,1.0673 -0.0013,1.57371 -0.121976,0.60313 -0.37362,1.14849 -0.762454,1.6524 -0.138672,0.17971 -0.474219,0.51946 -0.651534,0.6597 -0.532832,0.4214 -1.177469,0.70731 -1.8288,0.8111 -0.31695,0.0505 -0.717676,0.0655 -1.006546,0.0377 z M 0.00211884,271.86469 v -1.3208 h 1.32079996 1.3208 l -1.02e-4,0.0857 c -6.3e-5,0.0471 -0.0059,0.13716 -0.01288,0.20002 -0.114985,1.02901 -0.814446,1.89645 -1.790422,2.2204 -0.25141596,0.0834 -0.53847396,0.13509 -0.75247496,0.13535 l -0.08573,10e-5 z m 12.97939916,1.313 c -0.150166,-0.0182 -0.31809,-0.0484 -0.421078,-0.0757 -0.835658,-0.22167 -1.507565,-0.83118 -1.812355,-1.64406 -0.08752,-0.23341 -0.142128,-0.49934 -0.160982,-0.78389 l -0.0086,-0.13018 h 2.65069 2.650689 l -0.0086,0.13018 c -0.05734,0.86335 -0.478844,1.60313 -1.180832,2.07247 -0.302135,0.20201 -0.665751,0.34519 -1.035762,0.40787 -0.115943,0.0196 -0.572679,0.0354 -0.6731,0.0233 z m 13.13815,-0.0117 c -0.712684,-0.0933 -1.343279,-0.46114 -1.778865,-1.03776 -0.175871,-0.23281 -0.296725,-0.46442 -0.392665,-0.75251 -0.08145,-0.24459 -0.133158,-0.53374 -0.133416,-0.74612 l -1.04e-4,-0.0857 h 1.3208 1.3208 v 1.3208 1.3208 l -0.104775,-10e-4 c -0.05763,-7.8e-4 -0.161925,-0.009 -0.231775,-0.0181 z" fill="#000000" stroke-width="0.0127"></path></g></svg>