<svg xmlns="http://www.w3.org/2000/svg" xmlns:xlink="http://www.w3.org/1999/xlink" width="46" height="46" viewBox="0 0 46 46">
  <defs>
    <linearGradient id="linear-gradient" x1="1" x2="0.087" y2="1" gradientUnits="objectBoundingBox">
      <stop offset="0" stop-color="#fe1e9a"/>
      <stop offset="1" stop-color="#fea64c"/>
    </linearGradient>
    <filter id="icon-priority-m" x="0" y="0" width="46" height="46" filterUnits="userSpaceOnUse">
      <feOffset dy="3" input="SourceAlpha"/>
      <feGaussianBlur stdDeviation="3" result="blur"/>
      <feFlood flood-opacity="0.149"/>
      <feComposite operator="in" in2="blur"/>
      <feComposite in="SourceGraphic"/>
    </filter>
  </defs>
  <g transform="matrix(1, 0, 0, 1, 0, 0)" filter="url(#icon-priority-m)">
    <path id="icon-priority-m-2" data-name="icon-priority-m" d="M-637-187a13.908,13.908,0,0,1-9.9-4.1A13.908,13.908,0,0,1-651-201a13.91,13.91,0,0,1,4.1-9.9A13.907,13.907,0,0,1-637-215a13.909,13.909,0,0,1,9.9,4.1A13.909,13.909,0,0,1-623-201a13.907,13.907,0,0,1-4.1,9.9A13.909,13.909,0,0,1-637-187Zm3.865-16.47h0l-.234,5.36V-195h2.352v-11.375h-3.079l-2.906,8.25-2.921-8.25h-3.063V-195h2.344v-3.109l-.234-5.359,3.062,8.468h1.61Z" transform="translate(660 221)" fill="url(#linear-gradient)"/>
  </g>
</svg>
