<svg height='300px' width='300px'  fill="#000000" xmlns="http://www.w3.org/2000/svg" xmlns:xlink="http://www.w3.org/1999/xlink" version="1.1" x="0px" y="0px" viewBox="0 0 100 100" enable-background="new 0 0 100 100" xml:space="preserve"><polygon points="11.18,6 13.91,6 5,15.39 5,12.55 "></polygon><polygon points="40.55,6 43.33,6 34.5,14.92 25.69,6 28.49,6 34.55,12.08 "></polygon><polygon points="70.52,6 73.33,6 64.5,14.92 55.67,6 58.48,6 64.5,12.08 "></polygon><polygon points="95,12.55 95,15.39 85.68,6 88.5,6 "></polygon><polygon points="95,27.55 95,30.39 79.5,14.77 64.5,29.92 49.5,14.77 34.5,29.92 19.68,14.92 5,30.39 5,27.55 19.59,12.08   34.55,27.08 49.51,11.93 64.5,27.08 79.5,11.93 "></polygon><polygon points="95,42.55 95,45.39 79.5,29.77 64.5,44.92 49.5,29.77 34.5,44.92 19.68,29.92 5,45.39 5,42.55 19.59,27.08   34.55,42.08 49.51,26.93 64.5,42.08 79.5,26.93 "></polygon><polygon points="95,57.55 95,60.39 79.5,44.77 64.5,59.92 49.5,44.77 34.5,59.92 19.68,44.92 5,60.39 5,57.55 19.59,42.08   34.55,57.08 49.51,41.93 64.5,57.08 79.5,41.93 "></polygon><polygon points="95,72.55 95,75.39 79.5,59.77 64.5,74.92 49.5,59.77 34.5,74.92 19.68,59.92 5,75.39 5,72.55 19.59,57.08   34.55,72.08 49.51,56.93 64.5,72.08 79.5,56.93 "></polygon><polygon points="95,87.55 95,90.39 79.5,74.77 64.5,89.92 49.5,74.77 34.5,89.92 19.68,74.92 5,90.39 5,87.55 19.59,72.08   34.55,87.08 49.51,71.93 64.5,87.08 79.5,71.93 "></polygon><polygon points="19.59,87.08 28.49,96 25.69,96 19.68,89.92 13.91,96 11.18,96 "></polygon><polygon points="49.51,86.93 58.48,96 55.67,96 49.5,89.77 43.33,96 40.55,96 "></polygon><polygon points="88.5,96 85.68,96 79.5,89.77 73.33,96 70.52,96 79.5,86.93 "></polygon></svg>